<svg xmlns="http://www.w3.org/2000/svg" viewBox="0 0 1527.5 300" fill="#006C66"><title>Max-Planck-Institute for Informatics</title><path d="M150 0C67.143 0 0 67.143 0 150s67.143 150 150 150 150-67.143 150-150C299.857 67.143 232.857.143 150 0zm0 295.857C69.429 295.857 4.143 230.571 4.143 150S69.429 4.143 150 4.143 295.857 69.429 295.857 150c-.143 80.571-65.286 145.714-145.857 145.857z"/><path d="M238 138.571c-2-4.428-.714-7.285-1.286-10.428s-3.857-10-6.143-15.429c-1-2.428 5.429-1.857.572-10.857 0-.286 6.714-2.857 0-7.857-3.429-2.714-6.286-5.857-8.572-9.571a1.502 1.502 0 010-1.858c3.858-3.428 4-8.285-.142-10.714s-6.429 0-9.572 2c-1 .714-1.571 1.143-2.714.714l-2.572-1.714c3.858-3.714 4.715-7.428 4.429-8s-6.571-1.857-14.571 1.429l-.572-.429c3.286-5.571 1.429-9.571 1.286-9.857H198c5.143-7 11.143-13.286 17.714-19h.143c.286-.429.429-.857-.286-1.286l-1.428-.857C150.429-.429 70 22.571 34.714 86.286 23.857 105.714 18.143 127.714 18.143 150c0 42.143 21.428 82.714 56.286 108 1.285.857 2.571 1.714 4 2.286.571.143 1.142.143 1.571-.286l.429-.714c.285-.286.428-.715.428-1.143 0-1-1.286-1.857-3-4.286-4.286-6.428-6.571-13.857-6.714-21.571-.143-7 2.143-14 6.428-19.572 5.286 5.572 16.715 15.572 16.429 24.857-.286 9.286-9.857 9.715-7.714 17.429 1.285 4.857 4.857 2.857 5.571 6.571 1 6.286 9.572 10.429 13.286 9.858 1-.143 1.714.571 3.428 2.428s8.858 2.286 11.715 1.714c2.857-.571 5.857 2 11.428 1.286s8.715-1.286 11.715-1.286 32.142-.428 51.428 2.572c3.429.571 4.429-1 3-3.572-7-12.285-8-22.571-4-35.714 7.143.572 17.429 2.429 30.857-5.714 4.572-3 7.429-8.143 7.286-13.572-.143-3-1.429-6.714-.714-9.571s1.857-3.857 3-4.571c5.143-3.715 1.428-6.572.571-6.858A4.969 4.969 0 00236.43 192c-1-1-3.858-8.857-.572-10.429 3.286-1.571 7.572-2.571 11.572-4.428 3.285-1.286 4.857-5.143 3.571-8.429 0 0 0-.143-.143-.143-2-5.142-12.571-29.428-12.857-30zM92.429 255.857c-1 .286-4.143.429-3.429-3.857s3.286-3.714 4.714-2.286-1 4-1.285 6.143zM216.714 76c1.715-1.143 3.572-1.571 4.715-.571 3.714 3.714-4.143 5.857-2.572 8.714 2.857 4.571 6.429 8.714 10.714 12 1.715 1.428 2 4.428-4.714 5.857s-33.714 8.429-48 23.571c-17.857 18.858-29.143 43.286-30.714 40s-5.143-4-4.572-5c25.572-44 65.715-78.714 75.143-84.571zm11.715 31c-1.429 4.143-13 7.857-12.429 5s0-3.143.857-3.286 5-1.571 10.714-3c.572-.143 1.286.143.858 1.286zM199 114.571c-.286-1.714 12.143-5.857 12.571-4.714s-2.571 8.572-6.714 10-6.714 1.286-6.571.572c.571-1.858.857-3.858.714-5.858zm-29 65.143c-5.714 3.572-8.857-3.143-9.714-4.428a5.347 5.347 0 01-.715-4.429c.429-2 .715-4.714-.571-13.286-.571-3.857 7.143-13.142 9-14.857s4.429.857 4.571 3.715c.429 5.142-2.571 8-5.571 10.285S162.571 163 163.286 164c1.143.429 2.285-.143 2.714-1.286 2.143-4.714 8.571-7 9.571-9.571 1-2.572.429-6.286.286-8s1.286-1.714 2.286-1.572 2 2 2.571 3.858c4.143 10.714-6.143 17.142-7.857 19.714S174.43 177 170 179.714zm8.714-41.571c-3.143 2.143-7.571-.714-6.714-2 4.429-6.143 10-11.572 16.429-15.714 4.857-3 5.428-3.286 5.714-1.572.143 3.857-1.143 7.714-3.714 10.714-3.286 3.572-6.572 3.286-8.286 3.715-1.714.428-1.143 3.285-3.429 4.857zm-27.571 36.571c-1.429-.285-2-3-1.714-4.143s4.428-7.428 5.714-9.142c.286-.286.714-.143 1 .142 0 .143.143.143.143.286.857 5.857 0 14-5.143 12.857zm46-105.857c3.428-1.571 7-2.286 10.714-2.286 1.143.143-2.714 6.858-9.428 9.715-6.715 2.857-12.143 3.571-12.715 3.285s5.857-8.285 11.429-10.714zm-119 111.857c-2.143-2.428-4-3.714-4.143-3.571-2.571 3.857-4.429 8.143-5.143 12.714-6.428-12.286-10.143-26-10.714-39.857-2-50.571 40.428-91.286 92.143-91.143 11 0 21.857 2.286 32 6.572-2.143 2.857-3.857 6.142-5.286 9.428 0-2.714-.714-4.857-.571-6.571s-7.286 1.285-13.858 11.857a29.265 29.265 0 00-3.142 7.571c-.143-4-1-7-1.286-7-5.572 2.429-9.857 7-12.143 12.572-.714 1.571-1.143 3.143-1.571 4.857-.286-2.714-1-4.572-1.286-4.572s-8.429 3.286-12.286 12.715c-.857 2.143-1.428 4.285-1.571 6.571-.715-3.286-2-5.286-2.429-4.857-2.714 3.429-8.143 5-10.857 13.714-.714 2-1 4-1 6-1.143-2.857-2.857-4.571-3.286-4.571s-8.714 7.857-10 15.571c-.428 2.715-.285 5.572.286 8.286-1.571-2.571-3.571-4.286-4.429-6.857-1.285.714-8.142 7.143-8.285 15.286-.143 3 .143 5.857 1 8.714-2.286-4.143-5.429-6-5.857-5.857s-5.715 5.857-6.858 15.857c-.285 2.143 0 4.428.572 6.571zM184 66.857c4-4.857 10.857-8.714 11.714-8.286.857.429-1.143 8-5.571 12.286s-11.572 8.857-12.286 8.714 2.429-8.428 6.143-12.714zM170.714 85.43c-3.285 2.428-6 5.571-8 9.142C162 95.857 160 87.43 165.143 79.43c3.143-5 9.428-9.429 9.286-8.858s3 9.429-3.715 14.858zm-14.428 10.714c-4.857 7.286-5.143 4.714-10.429 11.857-.286.286-.286-9.286 1.572-13.429 3-6.714 8.142-10.571 8.857-10.714s2.714 8.286 0 12.286zm-15.857 14.428c-2.429 4.286-4.715 3.286-8.858 9.572-.428.571-1.571-5.143 1-13C134 102.857 137 99.429 141 97.286c.857-.143 2.429 8.143-.571 13.285zm-14.715 15.286c-2.571 5.572-4.143 5.714-7.143 9.143-.428.571-2.571-5.286-.571-12.571 2-7.286 5.714-8 7.571-10s2.858 7.571.143 13.428zm-12 9.429c0 1.428-.143 2.857-.571 4.285-1.857 6.143-5.572 8.858-7.572 11.572-1.285-2.572-2-5.429-2.285-8.286.143-6.143 2.857-12 7.428-16 1.143 0 3 4.572 3 8.429zm-12.143 18.285c-.142 6-2.857 11.572-7.285 15.429-1.857-3.286-2.857-7-3.143-10.857-.286-9 3.428-12.143 5.143-13.857.714 2.571 5.285 4.571 5.285 9.285zm-17.285 9c2.571 1.286 5.571 4.858 5.857 11.715s-4.572 12.428-6.572 13.428c-1.285-5.285-3.714-6.285-3.714-11.428.143-4.857 1.714-9.715 4.429-13.715zm10.428 17.858c6.572-2.858 13.715-2.429 14-2.143s-2.143 8.428-8.428 11.714-13.572 3.857-14.286 3 2.143-9.714 8.714-12.571zm-.571-4.858c.428-2.142 4.286-9.285 10.143-11.857 4.143-1.857 8.857-2.571 13.428-2.143.715.286-2.428 8-8.285 10.858s-9.286 1.285-15.286 3.142zM104 158.714c.286-.571 5-9.143 10.571-11.714 4-1.714 8.429-2.429 12.715-2 .428.143-2.572 7.714-8.857 10.857-6.286 3.143-14.715 3.572-14.429 2.857zm12.714-17c-.428-.285 6.286-9.143 12-11.857 3.857-1.571 8-2 12-1.428.429.428-2.714 7.857-9.285 10.714-4.715 1.857-9.715 2.857-14.715 2.571zM132 124.857c-.286-.286 4.857-9 10.571-11.286s11-.142 12.715 0-1.857 6.429-9.429 9.143c-7.571 2.715-12.857 2.572-13.857 2.143zm17.143-16.286c.143-.428 5.857-8.428 11.571-10.428 4.286-1.286 8.857-1.429 13.143-.286.714.286-4 7.143-11 9.286S149 109 149.143 108.57zm17.286-14.142c-.715-.429 6.142-8.143 11.714-10.286 3.714-1.429 7.857-1.857 11.857-1.429.429.286-3.571 7-10.143 9.572-6.571 2.571-12.571 2.714-13.428 2.143zm-94.715 156C40.857 225.857 22.286 188.714 22.286 150c-.143-70.429 57-127.714 127.428-127.714 20.715 0 41.143 5 59.429 14.571.286.143.428.429.286.714 0 .143-.143.143-.143.286a131.749 131.749 0 00-14.572 16.286c-14-6.572-29.285-10-44.714-10C91.571 44.286 44.286 91.57 44.143 150c-.286 25.286 8.857 49.857 25.571 68.857-1.857 4.286-2.714 8.857-2.714 13.429 0 6.285 1.571 12.571 4.714 18.143zM72 215c-15.571-18.143-23.857-41.286-23.571-65C48.57 94 94 48.571 150 48.429c14.571 0 29 3 42.286 9.142-2.143 1-4 2.286-5.857 3.715-11.572-5-23.858-7.429-36.429-7.286-53 .143-95.857 43-96 96 0 23 7.143 43.143 21.143 60-.714 1.286-1.857 3-3.143 5zm5-8c-1.857-1.714-5.857-6.143-6.286-11.857v-.857c0-6.143 2.715-12.286 3.429-12.857s7.571 4.714 7.714 12.428c0 4.857-1.714 9.429-4.857 13.143zm11.429-10.286c5.571-2.571 13.714-2 13.285-1.571s-2.571 8.286-8.857 11.428a17.085 17.085 0 01-12.428 1.858c3.285-3.715 2.571-9.143 8-11.715zm7.428 66.429c-.857-3.857-.571-9 .714-10.429s7-1.714 7.143-.143-1.571 7.715.429 14.572c-.429 1-6.572.571-8.286-4zm.429-15.857c-.429-2.857 2.285-5.572 2.285-11.715 0-6.142-9.428-18-15.857-24.714 3.857-.143 7.715-1 11.286-2.714 9.429-4.429 11.286-14.429 11.571-14.857-1.714-.572-3.571-.715-5.428-.572l1.143-.571c9.143-5 11.571-15.714 11.143-15.857-1.858-.429-3.858-.572-5.715-.429l2.857-1c9.715-3.857 12.429-14.714 12.143-15.143-1.571-.428-3.285-.571-5-.571L119.43 158c8.857-4.429 12-14.429 11.571-14.714-1.571-.429-3.143-.572-4.714-.572 2.143-.428 4.428-1.285 6.428-2.143 9.572-4.142 12.715-13.285 12.286-13.714-1.429-.428-2.857-.714-4.286-.714 2.143-.429 4.286-1.143 6.286-1.857 9.429-3.143 13.143-12.143 12.571-12.286l-5.285-1.143c3.143-.143 6.428-.857 9.428-1.857 10.143-3.429 13.715-9.571 14-12.286-1-.571-2.143-1-3.285-1.143 2.285-.428 4.571-1 6.714-1.714 9.428-3.857 13.428-13.286 13.714-14 1.857-.571 3.714-1.428 5.572-2.286l2.714-1.285 2.286 1.571c1.428.857 2 1.143 1.285 1.714C174.286 107.143 150 142.143 139.43 159c-.286.571-.858.429-1.858.429-11.285-.858-17.714 12.714-12.714 25.428-.571 2.572-6 7.572-6.428 7.857s-1.429 2 .428 1.857c1.857-.142 6-4.571 7.714-6.428.572.857 3.143 2.857 1.858 4-5.858 5.857-12.572 11-19.858 15-3.714 1.714 6 3 22.429-11.857 1-.857 2.143 3.428 3.571 5.285-2.857 9.286 4.143 27.286 3 32.858-.142 2.142-1.857 3.857-4 3.857-16.285.428-17.857-.429-26.142 2-3.858 1.143-2.858 3.714-.143 3s6.571-2.143 24.143-1c4.428.143 9.285-.857 9.285-8.143 0-7.286-5.143-26.286-3.428-29 1.428 1.143 3.143 1.857 5 2-.286 6.428 10 27.143 5.428 38.571-1.714 4.286-9.143 3.857-22 2.572-21.857-2.143-29 2.571-29.428 0zm50.143 14.143c-8.429 2.857-11.858-7-10.429-9.143s6.286 1.428 10.429-1.286 5 8.714 0 10.429zm-38.572 6.142c-1.143-5.285-1.571-14.285.572-16.428s7-1.286 6.857.286c-.429 6.142-3 13.142 1.714 20.142 1.857 2.715-7.429 3.143-9.143-4zm16.286 6C121.857 273 115.57 263 120.714 251c.429-1.143 8.286-.429 9.715 0s-1.143 9.714 9.714 14c1 .429-.143 12.571-16 8.571zm67.428-33.285c-3.571 12.571-5.428 17.571 0 31.285.715 1.858 1.286 3.286-.285 3-11-2-13.429-3.714-48.143-.857-2.429.286.857-4.857.428-8.285 3.143-.429 8.286-1.858 9.286-7s-3-10.858-2.571-11.715c5-9.571-.286-20.143-4.429-38-.428-1.714.572-2.428 1.286-1.571 22.286 24.143 36.428 28.857 44.143 31.143.714.285.571 1.143.285 2zm57-65.857c-4.714 4.142-11.857 4.428-14.714 7-2.857 2.571-2.143 3.571-.571 7.428s1.571 2.429-1.572 3.286-5.857 8.286-12.571 7c-2.572-.429-.714 1.143.286 1.286 3.714.428 5.285-.715 6.571-2s3.143-3.429 5.143-4.143 4.143-.715 4.286.857-2.715 3-3.858 3.571c1.429.715 5.572 2.715 2 5.143-3.571 2.429-6.571-.714-7-1s-2.428-.286-1.857.429 7.429 1.857 6.429 3.143c-5 6.714-.857 10.714-2.429 17.571s-11 10.714-18.285 12c-24.858 4.429-49-16.571-63.143-32.571 1.285-3 1.143-6.858-.143-5.429s-1 3.429-4 4.143c-5.572 1.428-8.143-8.429-9.857-10.143-6.857-6.714-9.572-16.286-5.572-24.714s12.857-6.715 16.286-1.572 2.429 10 4.857 11.857 6.857.286 7.714 0S159 183.714 168 183.43s8.429-15.286 9.857-16.572c12.286-12 6-22.714 3.714-25.143-2.285-2.428 1.429-5.143 2.143-5.285 6-1.286 11-5.286 13.429-11 0 0 12-.286 16.286-8.858 1.142-2.285 4.714 2.143 12.714-4.142.428-.429 1.143-.572 1.571-.143.143.143.286.428.429.571 5.286 12.714 7.428 16.143 7 22.572s12.428 30.714 13.428 33 1.143 4.857 0 6z"/><path d="M219.714 128.571c-7 .286-15.143 8.858-17.714 10s-1.857 2.143-.286 1.572S210.143 133.429 217 131s5.143 2.571 7.143 2.286-.429-4.857-4.429-4.715zm1.572 6.858c-.572.142.571 3.142-2.429 3.285-6.571.429-11.857 6.715-15.857 8.572-1.714 1-3.571 1.571-5.429 2-.285 0-.428.285-.285.571 0 .286.285.429.571.286 16.714 2.286 23.143 1.571 23.286 1 .143-.572-.857-1.714-.572-2.429.715-2.571.715-5.285.143-7.857-.285-1.143 2.572-.428 2.572-1.857s-1-3.714-2-3.571zm-2.572 13.285c-.285 1.286-7.857.715-11.857.286-1 0-2.571-.143.429-2s5.857-4 10.285-4.857c.572 0 1 .286 1.143.857a12.86 12.86 0 010 5.714zm21.857 23.857c-1.285 0-6.428 2.286-8.428 3.572s-6.286 3.857-6-1.143c.143-1.857 1.286-6.286 1.286-7.571s-1.429-1-1.572 0c-.143 2.571-.428 5.142-1 7.571-.571 2.571 1.714 5.714 5.143 3.857s6.857-4.143 10.429-4.857c.857-.143 1-1.429.142-1.429zm-97 18.286c-1-.428-.714 1.714-2 1.429s-.285-1.857-2.571-4.286-4-1.714-6.143-5.143c-2.143-3.428-.428-17.143 4.429-15.428s2.285 7.142 1.428 11.428c-.857 4.286 3.572 4 4 3 .429-1-1.571-1.286-2-2.714s5-10.857-2.571-13.429c-5.429-1.857-9.143 5.143-8.429 12.715.143 4.571 3 8.571 7.286 10.142 3.286 1.143.857 5.715 5.286 5.715 2 0 2.428-3 1.285-3.429zm44-143.143c.286.143.429 0 .715-.143l9.285-11.857c.143-.285 0-.714-.285-.857l-1.572-.571c-.285-.143-.571 0-.714.143l-9.286 11.857c-.285.285-.143.714.286.857l1.571.571zm-17.285-4.857l1.571.429a.786.786 0 00.714-.429L178 29.43c.143-.286 0-.572-.143-.715 0 0-.143 0-.286-.143l-1.714-.285h-.428L169.857 42c-.143.286 0 .571.143.714.143.143.143.143.286.143zM151.143 41h1.571c.286.143.572-.143.572-.429l1.428-14.285c0-.286-.285-.715-.571-.715h-1.572c-.428 0-.571.286-.714.572l-1.286 14.286c0 .285.286.571.572.571zm-18.572 1.429l1.572-.286c.286 0 .571-.286.428-.572l-2.714-14.142c0-.286-.286-.572-.571-.429h-1.715c-.285.143-.571.429-.428.714l2.714 14.143c0 .429.286.572.714.572zm-19.142 4.428l.714.286 1.571-.572c.286 0 .572-.285.572-.571 0-.143 0-.143-.143-.286l-6.572-12.857c-.142-.286-.428-.428-.714-.286L107.43 33c-.286 0-.572.286-.572.571 0 .143 0 .143.143.286l6.429 13zM95.714 55c.143.286.429.286.715.143l1.428-.857c.286-.143.429-.572.143-.715v-.142l-9.571-11c-.286-.286-.572-.286-.715-.143l-1.428.857c-.429.143-.429.571-.143.857l9.571 11zM79.143 66.714c.286.143.571.143.714-.143l1.286-1a.69.69 0 000-1L69 56.143h-.714L67 57.286a.69.69 0 000 1l12.143 8.428zM64.857 81.571c.286 0 .429-.142.572-.285L66.57 80c.286-.286.143-.714-.285-.857l-14-5.429c-.286-.143-.572-.143-.715.143l-1 1.286c-.285.143-.285.571 0 .857.143.143.143.143.286.143l14 5.428zM38.286 96.857l15 2.143c.285 0 .571-.143.571-.429l.857-1.428c.143-.286 0-.572-.143-.714 0 0-.142 0-.285-.143l-15-2.143-.715.286A5.28 5.28 0 0137.857 96c-.143.286 0 .571.143.714.143.143.143.143.286.143zm-8.143 22.714l15.286-1.428c.285 0 .428-.143.428-.429.286-.571.429-1 .572-1.571.142-.286 0-.572-.143-.714-.143 0-.286-.143-.429-.143l-15.428 1.428-.572.429-.428 1.714c0 .429.285.857.714.714zm11.571 18.286c0-.571.143-1.286.143-1.857s-.286-.714-.714-.571l-14.857 5.142c-.286.143-.429.286-.429.572s-.143 1.143-.143 1.714c0 .286.143.572.429.714.143 0 .286 0 .428-.142l14.715-5.143c.285 0 .428-.143.428-.429zm-.428 20.429v-1.857c0-.429-.429-.715-.857-.572h-.143l-13.429 9c-.286 0-.286.286-.286.572s.143 1.142.143 1.714c.143.428.572.571.857.428h.143l13.429-8.857c.143-.143.286-.285.143-.428zm3.428 20.285l-.428-1.857c0-.285-.286-.571-.715-.428-.142 0-.285.143-.285.143l-11 12.142c-.143.143-.286.429-.143.572s.428 1.143.571 1.714c0 .286.286.572.715.429.142 0 .285-.143.285-.143l10.857-12c.143-.143.143-.286.143-.572zm5.572 18.143L42.57 211.43c-.142.142 0 .428 0 .571l1 1.714c.143.286.572.286.858.143.142 0 .142-.143.142-.286L52.286 199c0-.143.143-.286 0-.571l-.857-1.715c-.286-.285-.715-.428-1-.143l-.143.143zm11 16.572c-.286-.429-1-.286-1 .143l-4.143 17.142c-.143.286 0 .429 0 .572l1.428 1.428c.143.286.572.286.858.143.142 0 .142-.143.142-.285l4-17c.143-.143 0-.286 0-.429l-1.285-1.714zm310.88-134.791h16.6l15.8 45 15.7-45h16.7v62h-12.7v-17l1.3-29.3-16.7 46.3h-8.7l-16.6-46.2 1.3 29.2v17h-12.7v-62zm124.1 62l-4.3-12.7h-22.3l-4.2 12.7h-13.5l22.9-62h11.8l23.1 62h-13.5zm-15.5-46.3l-7.6 23.3h15.4l-7.8-23.3zm53.9-15.7l11.5 21.4 11.6-21.4h14.6l-17.9 30.7 18.4 31.3h-14.8l-11.8-21.7-11.9 21.7h-14.8l18.4-31.3-18-30.7h14.7zm107.3 40.3h-11.1v21.7h-12.7v-62h24c4.6 0 8.7.9 12.2 2.6 3.5 1.7 6.2 4.1 8.1 7.3 1.9 3.1 2.8 6.7 2.8 10.7 0 6.1-2.1 10.9-6.2 14.4s-9.8 5.3-17.1 5.3zm-11.1-30v19.7h11.3c3.4 0 5.9-.8 7.7-2.4 1.8-1.6 2.6-3.9 2.6-6.9 0-3.1-.9-5.6-2.7-7.5-1.8-1.9-4.2-2.9-7.4-2.9h-11.5zm65-10.3v51.8h27v10.2h-39.7v-62h12.7zm82.4 62l-4.3-12.7h-22.3l-4.2 12.7h-13.5l22.9-62h11.8l23.1 62h-13.5zm-15.5-46.3l-7.6 23.3h15.4l-7.8-23.3zm93.5-15.7v62h-12.7l-24.7-40.8v40.8h-12.7v-62h12.7l24.8 40.9v-40.9h12.6zm55.6 41.6h12.7c-.5 6.6-2.9 11.9-7.3 15.7s-10.3 5.7-17.5 5.7c-7.9 0-14.1-2.6-18.6-7.9-4.5-5.3-6.8-12.6-6.8-21.8v-3.7c0-5.9 1-11.1 3.1-15.6s5.1-7.9 9-10.3c3.9-2.4 8.4-3.6 13.5-3.6 7.1 0 12.8 1.9 17.2 5.7 4.3 3.8 6.9 9.2 7.5 16h-12.7c-.3-4-1.4-6.9-3.3-8.7-1.9-1.8-4.8-2.7-8.7-2.7-4.2 0-7.4 1.5-9.5 4.5-2.1 3-3.2 7.7-3.2 14v4.6c0 6.6 1 11.4 3 14.5 2 3.1 5.2 4.6 9.5 4.6 3.9 0 6.8-.9 8.8-2.7 1.9-1.7 3-4.5 3.3-8.3zm64.4 20.4l-15.8-24.9-6.6 7.2v17.7h-12.7v-62h12.7v28.1l5.6-7.7 15.7-20.4h15.6l-21.9 27.5 22.5 34.5h-15.1zm72.4-62v62h-12.7v-62h12.7zm70.6 0v62h-12.7l-24.7-40.8v40.8h-12.7v-62h12.7l24.8 40.9v-40.9h12.6zm51.9 46c0-2.4-.8-4.2-2.5-5.5-1.7-1.3-4.7-2.6-9.1-4-4.4-1.4-7.9-2.8-10.5-4.2-7-3.8-10.5-8.8-10.5-15.2 0-3.3.9-6.3 2.8-8.9 1.9-2.6 4.6-4.6 8.1-6.1s7.5-2.2 11.8-2.2c4.4 0 8.3.8 11.8 2.4 3.4 1.6 6.1 3.8 8 6.7 1.9 2.9 2.9 6.2 2.9 9.8h-12.7c0-2.8-.9-5-2.7-6.5-1.8-1.5-4.3-2.3-7.5-2.3-3.1 0-5.5.6-7.2 1.9-1.7 1.3-2.6 3-2.6 5.1 0 2 1 3.6 3 5 2 1.3 5 2.6 8.9 3.8 7.2 2.2 12.5 4.8 15.8 8 3.3 3.2 5 7.2 5 12 0 5.3-2 9.5-6 12.5s-9.5 4.5-16.3 4.5c-4.7 0-9.1-.9-12.9-2.6-4.1-1.5-7.1-3.9-9.1-6.9-2-3-3.1-6.5-3.1-10.4h12.7c0 6.7 4.1 10.1 12.2 10.1 3 0 5.4-.6 7.1-1.8 1.7-1.3 2.6-3 2.6-5.2zm76.4-46v10.3h-18.9v51.7h-12.7v-51.7h-18.6v-10.3h50.2zm29.1 0v62h-12.7v-62h12.7zm65.9 0v10.3h-18.9v51.7h-12.7v-51.7h-18.6v-10.3h50.2zm49.5 0h12.8v40.9c0 6.8-2.1 12.2-6.3 16.1-4.2 4-10 5.9-17.3 5.9-7.2 0-12.9-1.9-17.1-5.8-4.2-3.8-6.4-9.1-6.5-15.8v-41.3h12.7v41.1c0 4.1 1 7.1 2.9 8.9 1.9 1.9 4.6 2.8 8 2.8 7.1 0 10.8-3.8 10.9-11.4v-41.4zm78.5 0v10.3h-18.9v51.7h-12.7v-51.7h-18.6v-10.3h50.2zm52.7 25v9.9h-24.4v16.9h28.6v10.2h-41.3v-62h41.2v10.3h-28.5v14.7h24.4zm-1123.4 90.01v5.4h-20.9v21.6h-6.5v-50h30.8v5.4h-24.3v17.6h20.9zm51.9 1v3.1c0 4.9-.8 9.1-2.5 12.7-1.6 3.6-4 6.4-7 8.3s-6.5 2.9-10.5 2.9c-3.9 0-7.4-1-10.4-2.9s-5.4-4.7-7.1-8.2c-1.7-3.6-2.5-7.7-2.6-12.3v-3.6c0-4.8.8-9 2.5-12.6 1.7-3.7 4-6.5 7.1-8.4 3-2 6.5-3 10.4-3 4 0 7.5 1 10.5 2.9s5.4 4.7 7 8.4c1.7 3.6 2.6 7.8 2.6 12.7zm-6.6 3.6v-3.7c0-5.9-1.2-10.4-3.6-13.5-2.4-3.1-5.7-4.7-9.9-4.7-4.1 0-7.4 1.6-9.8 4.7-2.4 3.1-3.6 7.5-3.7 13.1v3.6c0 5.7 1.2 10.2 3.6 13.4s5.7 4.9 9.9 4.9 7.5-1.5 9.8-4.6c2.5-3.1 3.7-7.5 3.7-13.2zm48.3 22.4l-10.8-20.6h-11.7v20.6h-6.6v-50h16.5c5.6 0 9.9 1.3 12.9 3.8s4.5 6.2 4.5 11c0 3.1-.8 5.8-2.5 8-1.7 2.3-4 4-7 5.1l11.7 21.6v.5h-7zm-22.5-44.6v18.6h10.1c3.3 0 5.9-.8 7.8-2.5 1.9-1.7 2.9-3.9 2.9-6.7 0-3-.9-5.4-2.8-7-1.8-1.6-4.5-2.4-7.9-2.5h-10.1zM536.6 220.5h-6.8v-51.2h6.8v51.2zm51.7 0h-6.8l-25.8-39.4v39.4h-6.8v-51.2h6.8l25.8 39.6v-39.6h6.7v51.2zm40.2-22.6H607v22.6h-6.8v-51.2H632v5.5h-25v17.5h21.5v5.6zm50.9-1.3c0 5-.8 9.4-2.5 13.1s-4.1 6.6-7.2 8.6-6.7 3-10.8 3c-4 0-7.6-1-10.7-3-3.1-2-5.5-4.8-7.3-8.5s-2.6-7.9-2.7-12.7v-3.7c0-4.9.9-9.3 2.6-13 1.7-3.8 4.1-6.7 7.3-8.7s6.7-3 10.7-3c4.1 0 7.7 1 10.8 3s5.5 4.9 7.2 8.6 2.5 8.1 2.5 13.1v3.2zm-6.7-3.3c0-6.1-1.2-10.7-3.7-14-2.4-3.2-5.8-4.9-10.2-4.9-4.3 0-7.6 1.6-10.1 4.9-2.4 3.2-3.7 7.8-3.8 13.5v3.8c0 5.9 1.2 10.5 3.7 13.9 2.5 3.4 5.9 5 10.2 5 4.4 0 7.7-1.6 10.1-4.8s3.6-7.7 3.7-13.7v-3.7zm35.6 6.5h-12v20.7h-6.8v-51.2h16.9c5.8 0 10.2 1.3 13.3 3.9 3.1 2.6 4.7 6.4 4.7 11.5 0 3.2-.9 6-2.6 8.3s-4.1 4.1-7.2 5.3l12 21.7v.4h-7.2l-11.1-20.6zm-12-5.5h10.4c3.4 0 6-.9 8-2.6 2-1.7 3-4.1 3-7 0-3.2-.9-5.6-2.8-7.3-1.9-1.7-4.6-2.5-8.2-2.6h-10.3v19.5zm46.3-25l16.7 41.8 16.7-41.8h8.8v51.2H778v-19.9l.6-21.5-16.8 41.4h-5.2L740 179.2l.7 21.4v19.9h-6.8v-51.2h8.7zm83 37.8h-21.4l-4.8 13.4h-7l19.5-51.2h5.9l19.6 51.2h-6.9l-4.9-13.4zm-19.4-5.5h17.4l-8.7-23.9-8.7 23.9zm69-26.8h-16.5v45.7H852v-45.7h-16.4v-5.5h39.6v5.5zm14.8 45.7h-6.8v-51.2h6.8v51.2zm50-16.2c-.6 5.4-2.6 9.6-6 12.5-3.4 2.9-7.8 4.4-13.4 4.4-6 0-10.9-2.2-14.5-6.5-3.6-4.3-5.5-10.1-5.5-17.4v-4.9c0-4.8.8-8.9 2.5-12.6 1.7-3.6 4.1-6.4 7.2-8.3 3.1-1.9 6.7-2.9 10.8-2.9 5.4 0 9.8 1.5 13.1 4.6 3.3 3 5.2 7.2 5.7 12.6h-6.8c-.6-4.1-1.9-7.1-3.8-8.9-2-1.8-4.7-2.8-8.2-2.8-4.3 0-7.7 1.6-10.1 4.8-2.4 3.2-3.7 7.7-3.7 13.6v5c0 5.6 1.2 10 3.5 13.3s5.6 4.9 9.7 4.9c3.7 0 6.6-.8 8.6-2.5s3.3-4.7 4-8.9h6.9zm24.3-6.6c-5.8-1.7-10-3.7-12.6-6.1s-4-5.4-4-9c0-4 1.6-7.4 4.8-10 3.2-2.6 7.4-4 12.6-4 3.5 0 6.6.7 9.4 2 2.8 1.4 4.9 3.2 6.4 5.6s2.3 5 2.3 7.8h-6.8c0-3.1-1-5.5-3-7.3s-4.7-2.7-8.3-2.7c-3.3 0-5.9.7-7.8 2.2-1.9 1.5-2.8 3.5-2.8 6.1 0 2.1.9 3.9 2.7 5.3 1.8 1.4 4.8 2.8 9 4 4.3 1.2 7.6 2.5 10 4 2.4 1.4 4.2 3.1 5.3 5s1.7 4.2 1.7 6.8c0 4.1-1.6 7.5-4.9 10s-7.6 3.7-13 3.7c-3.5 0-6.8-.7-9.8-2-3-1.3-5.4-3.2-7-5.5s-2.5-5-2.5-8h6.8c0 3.1 1.1 5.5 3.4 7.3s5.3 2.7 9.2 2.7c3.6 0 6.3-.7 8.2-2.2s2.8-3.4 2.8-5.9-.9-4.4-2.6-5.8-4.9-2.7-9.5-4z"/></svg>